<svg width="1537" height="403" viewBox="0 0 1537 403" fill="none" xmlns="http://www.w3.org/2000/svg">
<g clip-path="url(#clip0_388_2270)">
<path d="M270.885 0H135.443V134.338H270.885V0Z" fill="#00E9DC"/>
<path d="M270.885 268.662H135.443V403H270.885V268.662Z" fill="#3F6AFA"/>
<path d="M135.443 134.338H0V268.676H135.443V134.338Z" fill="#6FC8F8"/>
<path d="M406.314 134.338H135.443V268.676H406.314V134.338Z" fill="#20365F"/>
<path d="M363.398 403C387.1 403 406.314 383.943 406.314 360.434C406.314 336.926 387.1 317.869 363.398 317.869C339.697 317.869 320.483 336.926 320.483 360.434C320.483 383.943 339.697 403 363.398 403Z" fill="#F9AAF6"/>
<path d="M621.994 113.39V145.488H543.727V186.291H607.942V216.886H543.727V287.547H506.102V113.39H621.994Z" fill="#20365F"/>
<path d="M675.243 113.39V287.533H639.877V113.39H675.243Z" fill="#20365F"/>
<path d="M725.819 166.259C735.6 160.875 746.925 158.183 759.807 158.183C772.854 158.183 784.344 160.711 794.291 165.767C804.252 170.823 812.022 177.956 817.629 187.152C823.223 196.362 826.116 207.171 826.281 219.619C826.281 224.101 825.951 228.092 825.275 231.562H731.715V232.56C732.556 241.852 735.559 249.135 740.739 254.451C745.933 259.753 753.028 262.417 762.066 262.417C769.258 262.417 775.237 260.887 780.004 257.812C784.771 254.738 787.912 250.228 789.414 244.257H824.283C822.947 252.715 819.682 260.34 814.502 267.145C809.308 273.937 802.461 279.293 793.933 283.188C785.391 287.082 775.609 289.036 764.587 289.036C750.204 289.036 737.791 286.385 727.334 281.07C716.891 275.768 708.859 268.17 703.252 258.304C697.658 248.438 694.848 236.96 694.848 223.842C694.848 210.573 697.562 199.013 703.004 189.147C708.432 179.281 716.037 171.656 725.819 166.259ZM781.244 190.637C775.981 186.4 769.327 184.296 761.295 184.296C753.607 184.296 747.132 186.496 741.855 190.882C736.592 195.283 733.451 201.213 732.445 208.674H790.888C789.73 200.885 786.52 194.873 781.244 190.637Z" fill="#20365F"/>
<path d="M830.621 159.672H871.002L897.853 197.483L925.187 159.672H963.06L917.665 222.366L965.568 287.547H925.187L895.58 247.482L866.235 287.547H828.361L876.264 222.366L830.621 159.672Z" fill="#20365F"/>
<path d="M1016.56 126.084C1016.56 131.728 1014.64 136.442 1010.78 140.268C1006.94 144.081 1002.09 145.994 996.249 145.994C990.394 145.994 985.489 144.094 981.576 140.268C977.65 136.456 975.68 131.728 975.68 126.084C975.68 120.441 977.65 115.768 981.576 112.023C985.503 108.293 990.394 106.421 996.249 106.421C1002.1 106.421 1006.95 108.293 1010.78 112.023C1014.63 115.768 1016.56 120.441 1016.56 126.084ZM1013.79 159.672V287.547H978.422V159.672H1013.79Z" fill="#20365F"/>
<path d="M1090.58 113.39L1139.24 241.264L1186.39 113.39H1234.8V287.533H1198.94V170.85L1153.28 287.533H1122.7L1077.04 170.85V287.533H1041.18V113.39H1090.58Z" fill="#20365F"/>
<path d="M1288.24 166.259C1298.02 160.875 1309.35 158.183 1322.23 158.183C1335.28 158.183 1346.77 160.711 1356.71 165.767C1366.67 170.823 1374.44 177.956 1380.05 187.152C1385.64 196.362 1388.54 207.171 1388.7 219.619C1388.7 224.101 1388.37 228.092 1387.7 231.562H1294.14V232.56C1294.98 241.852 1297.98 249.135 1303.16 254.451C1308.36 259.753 1315.45 262.417 1324.49 262.417C1331.68 262.417 1337.66 260.887 1342.43 257.812C1347.19 254.738 1350.33 250.228 1351.84 244.257H1386.71C1385.37 252.715 1382.1 260.34 1376.92 267.145C1371.73 273.937 1364.88 279.293 1356.34 283.188C1347.81 287.082 1338.03 289.036 1327 289.036C1312.61 289.036 1300.2 286.385 1289.74 281.07C1279.3 275.768 1271.27 268.17 1265.66 258.304C1260.07 248.438 1257.26 236.96 1257.26 223.842C1257.26 210.573 1259.97 199.013 1265.41 189.147C1270.84 179.281 1278.46 171.656 1288.24 166.259ZM1343.67 190.637C1338.4 186.4 1331.75 184.296 1323.72 184.296C1316.03 184.296 1309.55 186.496 1304.28 190.882C1299.01 195.283 1295.87 201.213 1294.87 208.674H1353.31C1352.15 200.885 1348.93 194.873 1343.67 190.637Z" fill="#20365F"/>
<path d="M1537 287.547H1506.15L1502.64 269.878C1492.78 282.655 1479.4 289.036 1462.51 289.036C1451.13 289.036 1440.93 286.344 1431.91 280.96C1422.88 275.576 1415.82 267.911 1410.71 257.949C1405.61 248.001 1403.06 236.468 1403.06 223.364C1403.06 210.423 1405.61 199.027 1410.71 189.161C1415.82 179.281 1422.91 171.656 1432.03 166.272C1441.15 160.888 1451.39 158.196 1462.76 158.196C1479.48 158.196 1492.44 164.004 1501.63 175.605V113.39H1537.01V287.547H1537ZM1502.13 223.855C1502.13 212.746 1499.29 203.796 1493.6 196.991C1487.93 190.199 1480.32 186.797 1470.77 186.797C1461.24 186.797 1453.59 190.199 1447.82 196.991C1442.05 203.796 1439.16 212.664 1439.16 223.61C1439.16 234.555 1442.05 243.437 1447.82 250.242C1453.59 257.033 1461.24 260.436 1470.77 260.436C1480.31 260.436 1487.93 257.074 1493.6 250.351C1499.29 243.642 1502.13 234.801 1502.13 223.855Z" fill="#20365F"/>
</g>
<defs>
<clipPath id="clip0_388_2270">
<rect width="1537" height="403" fill="white"/>
</clipPath>
</defs>
</svg>
